<svg width="32" height="32" viewBox="0 0 32 32" fill="none" xmlns="http://www.w3.org/2000/svg">
<path fill-rule="evenodd" clip-rule="evenodd" d="M5.88034 22C8.03299 22 9.91547 20.8198 10.9402 19.0589C11.9649 20.8198 13.8474 22 16 22C18.1526 22 20.0351 20.8198 21.0598 19.0589C22.0845 20.8198 23.967 22 26.1197 22C29.3673 22 32 19.3137 32 16C32 12.6863 29.3673 10 26.1197 10C23.967 10 22.0845 11.1802 21.0598 12.9411C20.0351 11.1802 18.1526 10 16 10C13.8474 10 11.9649 11.1802 10.9402 12.9411C9.91547 11.1802 8.03299 10 5.88034 10C2.63272 10 0 12.6863 0 16C0 19.3137 2.63272 22 5.88034 22ZM2.01685 16C2.01685 18.1772 3.74659 19.9421 5.88034 19.9421C8.01409 19.9421 9.74383 18.1772 9.74383 16C9.74383 13.8228 8.01409 12.0579 5.88034 12.0579C3.74659 12.0579 2.01685 13.8228 2.01685 16ZM12.1365 16C12.1365 18.1772 13.8663 19.9421 16 19.9421C18.1337 19.9421 19.8635 18.1772 19.8635 16C19.8635 13.8228 18.1337 12.0579 16 12.0579C13.8663 12.0579 12.1365 13.8228 12.1365 16ZM26.1197 19.9421C23.9859 19.9421 22.2562 18.1772 22.2562 16C22.2562 13.8228 23.9859 12.0579 26.1197 12.0579C28.2534 12.0579 29.9832 13.8228 29.9832 16C29.9832 18.1772 28.2534 19.9421 26.1197 19.9421Z" fill="#757F99"/>
</svg>
